<svg width="16" height="16" viewBox="0 0 16 16" fill="none" xmlns="http://www.w3.org/2000/svg">
<path fill-rule="evenodd" clip-rule="evenodd" d="M13 5C13 2.23858 10.7614 0 8 0C5.23858 0 3 2.23858 3 5C3 6.52024 3.67847 7.88202 4.74913 8.79905C2.52021 9.96998 1 12.3075 1 15C1 15.5523 1.44772 16 2 16C2.55228 16 3 15.5523 3 15C3 12.2386 5.23858 10 8 10C10.7614 10 13 12.2386 13 15C13 15.5523 13.4477 16 14 16C14.5523 16 15 15.5523 15 15C15 12.3075 13.4798 9.96998 11.2509 8.79905C12.3215 7.88202 13 6.52024 13 5ZM8 8C6.34315 8 5 6.65685 5 5C5 3.34315 6.34315 2 8 2C9.65685 2 11 3.34315 11 5C11 6.65685 9.65685 8 8 8Z" fill="#637480"/>
</svg>
